<svg width="51" height="51" viewBox="0 0 51 51" fill="none" xmlns="http://www.w3.org/2000/svg">
<g clip-path="url(#clip0_42_131)">
<path d="M24.0826 28.7587C22.6541 28.3773 21.3423 27.6483 20.2644 26.6369C19.1866 25.6256 18.3762 24.3634 17.9059 22.9631L20.332 22.1483C20.6683 23.1485 21.2472 24.0502 22.0171 24.7729C22.7869 25.4956 23.7237 26.0169 24.744 26.2902C25.7643 26.5636 26.8362 26.5806 27.8643 26.3396C28.8923 26.0987 29.8445 25.6073 30.6359 24.9093L32.3295 26.8279C31.2221 27.8054 29.8892 28.4933 28.4501 28.8303C27.0109 29.1672 25.5104 29.1426 24.0826 28.7587ZM32.6671 16.5028C32.178 16.3718 31.6611 16.3885 31.1818 16.5509C30.7025 16.7132 30.2822 17.014 29.9741 17.415C29.6661 17.8161 29.4841 18.2994 29.4511 18.804C29.4182 19.3086 29.5358 19.8116 29.7891 20.2496C30.0424 20.6876 30.42 21.0409 30.8741 21.2647C31.3283 21.4885 31.8385 21.5728 32.3405 21.507C32.8424 21.4412 33.3134 21.2281 33.6939 20.8949C34.0744 20.5616 34.3473 20.1231 34.4782 19.6347C34.5686 19.3104 34.5934 18.9713 34.551 18.6372C34.5085 18.3031 34.3998 17.9808 34.2311 17.6892C34.0625 17.3975 33.8373 17.1424 33.5687 16.9387C33.3001 16.735 32.9936 16.5868 32.6671 16.5028ZM22.7761 13.8525C22.287 13.7215 21.7702 13.7382 21.2908 13.9006C20.8115 14.063 20.3912 14.3637 20.0831 14.7647C19.7751 15.1658 19.5931 15.6492 19.5602 16.1537C19.5272 16.6583 19.6448 17.1614 19.8981 17.5994C20.1514 18.0374 20.529 18.3906 20.9831 18.6144C21.4373 18.8382 21.9476 18.9225 22.4495 18.8567C22.9514 18.7909 23.4224 18.5779 23.8029 18.2446C24.1834 17.9113 24.4564 17.4728 24.5872 16.9844C24.6777 16.6601 24.7024 16.321 24.66 15.9869C24.6175 15.6529 24.5088 15.3306 24.3402 15.0389C24.1715 14.7473 23.9463 14.4921 23.6777 14.2884C23.4092 14.0847 23.1026 13.9365 22.7761 13.8525Z" fill="#6C6C6C"/>
<path d="M22.59 42.9148L20.7744 41.105L28.0357 33.7877L35.4539 35.7754C35.7787 35.863 36.1174 35.8856 36.4509 35.8422C36.7843 35.7987 37.1058 35.6899 37.397 35.5221C37.6882 35.3542 37.9433 35.1306 38.1477 34.8641C38.3521 34.5975 38.5019 34.2933 38.5883 33.9687L43.2198 16.6838C43.3072 16.3595 43.3297 16.0211 43.2859 15.6881C43.2422 15.355 43.133 15.0338 42.9648 14.7429C42.7965 14.4519 42.5725 14.197 42.3054 13.9926C42.0384 13.7882 41.7337 13.6385 41.4087 13.5519L16.6812 6.92622C16.3565 6.83869 16.0177 6.81601 15.6843 6.85948C15.3508 6.90296 15.0293 7.01173 14.7381 7.17957C14.447 7.34741 14.1919 7.57102 13.9874 7.83757C13.783 8.10413 13.6333 8.40839 13.5468 8.73293L8.91535 26.0179C8.82794 26.3422 8.80547 26.6805 8.84923 27.0136C8.89299 27.3466 9.00212 27.6678 9.17037 27.9588C9.33862 28.2497 9.56267 28.5047 9.8297 28.709C10.0967 28.9134 10.4015 29.0632 10.7265 29.1497L21.8538 32.1313L21.1922 34.6006L10.0648 31.619C8.75319 31.2676 7.6347 30.4102 6.9554 29.2355C6.27611 28.0608 6.09165 26.6651 6.4426 25.3553L11.0741 8.07036C11.2477 7.42173 11.5476 6.81372 11.9567 6.28105C12.3657 5.74838 12.8759 5.3015 13.458 4.96594C14.0402 4.63038 14.6829 4.41272 15.3495 4.32538C16.016 4.23805 16.6934 4.28275 17.3429 4.45695L42.0703 11.0826C42.7199 11.2565 43.3288 11.5565 43.8624 11.9654C44.396 12.3743 44.8438 12.8842 45.1802 13.4659C45.5166 14.0475 45.735 14.6896 45.8229 15.3555C45.9108 16.0213 45.8665 16.6978 45.6925 17.3463L41.0611 34.6313C40.7101 35.9411 39.8525 37.0576 38.6769 37.7353C37.5012 38.4129 36.1039 38.5962 34.7923 38.2447L28.8144 36.6429L22.59 42.9148Z" fill="#6C6C6C"/>
</g>
<defs>
<clipPath id="clip0_42_131">
<rect width="40.9596" height="40.9022" fill="white" transform="translate(10.5863) rotate(15)"/>
</clipPath>
</defs>
</svg>
