<svg width="150" height="61" viewBox="0 0 150 61" fill="none" xmlns="http://www.w3.org/2000/svg">
<path d="M12.224 53.264C10.6667 53.264 9.23733 52.9866 7.936 52.432C6.63467 51.8773 5.504 51.088 4.544 50.064C3.584 49.0186 2.83733 47.792 2.304 46.384C1.792 44.976 1.536 43.4293 1.536 41.744C1.536 40.144 1.81333 38.6613 2.368 37.296C2.944 35.9093 3.73333 34.6933 4.736 33.648C5.73867 32.6026 6.90133 31.792 8.224 31.216C9.54667 30.64 10.976 30.352 12.512 30.352C13.6 30.352 14.656 30.5226 15.68 30.864C16.7253 31.184 17.664 31.6426 18.496 32.24C19.3493 32.816 20.0427 33.4773 20.576 34.224L18.272 36.624C17.6533 36.0053 17.024 35.4933 16.384 35.088C15.7653 34.6613 15.1253 34.3413 14.464 34.128C13.824 33.9146 13.1733 33.808 12.512 33.808C11.4667 33.808 10.4853 34.0106 9.568 34.416C8.672 34.8 7.88267 35.344 7.2 36.048C6.53867 36.752 6.016 37.5946 5.632 38.576C5.248 39.536 5.056 40.592 5.056 41.744C5.056 42.96 5.23733 44.0693 5.6 45.072C5.984 46.0533 6.51733 46.896 7.2 47.6C7.88267 48.304 8.69333 48.848 9.632 49.232C10.592 49.5946 11.648 49.776 12.8 49.776C13.504 49.776 14.1973 49.68 14.88 49.488C15.5627 49.296 16.2027 49.0186 16.8 48.656C17.3973 48.2933 17.9413 47.8666 18.432 47.376L20.16 50.192C19.6693 50.768 18.9973 51.2906 18.144 51.76C17.312 52.2293 16.3733 52.6026 15.328 52.88C14.304 53.136 13.2693 53.264 12.224 53.264ZM24.0228 52.944V29.264H27.3188V39.6L26.7428 39.984C26.9561 39.2373 27.3721 38.5546 27.9908 37.936C28.6094 37.296 29.3454 36.784 30.1988 36.4C31.0521 35.9946 31.9268 35.792 32.8228 35.792C34.1028 35.792 35.1694 36.048 36.0228 36.56C36.8761 37.0506 37.5161 37.808 37.9428 38.832C38.3694 39.856 38.5828 41.1466 38.5828 42.704V52.944H35.2868V42.928C35.2868 41.968 35.1588 41.1786 34.9028 40.56C34.6468 39.92 34.2521 39.4613 33.7188 39.184C33.1854 38.8853 32.5241 38.7573 31.7348 38.8C31.0948 38.8 30.5081 38.9066 29.9748 39.12C29.4414 39.312 28.9721 39.5893 28.5668 39.952C28.1828 40.3146 27.8734 40.7413 27.6388 41.232C27.4254 41.7013 27.3188 42.2133 27.3188 42.768V52.944H25.6868C25.4094 52.944 25.1321 52.944 24.8548 52.944C24.5774 52.944 24.3001 52.944 24.0228 52.944ZM49.518 53.264C48.1313 53.264 46.862 52.88 45.71 52.112C44.5793 51.344 43.6727 50.2986 42.99 48.976C42.3073 47.6533 41.966 46.16 41.966 44.496C41.966 42.8106 42.3073 41.3173 42.99 40.016C43.694 38.6933 44.6327 37.6586 45.806 36.912C47.0007 36.1653 48.334 35.792 49.806 35.792C50.6807 35.792 51.4807 35.92 52.206 36.176C52.9313 36.432 53.5607 36.7946 54.094 37.264C54.6487 37.712 55.0967 38.2346 55.438 38.832C55.8007 39.4293 56.0247 40.0693 56.11 40.752L55.374 40.496V36.144H58.702V52.944H55.374V48.944L56.142 48.72C56.014 49.296 55.7473 49.8613 55.342 50.416C54.958 50.9493 54.4567 51.4293 53.838 51.856C53.2407 52.2826 52.5687 52.624 51.822 52.88C51.0967 53.136 50.3287 53.264 49.518 53.264ZM50.382 50.224C51.3847 50.224 52.27 49.9786 53.038 49.488C53.806 48.9973 54.4033 48.3253 54.83 47.472C55.278 46.5973 55.502 45.6053 55.502 44.496C55.502 43.408 55.278 42.4373 54.83 41.584C54.4033 40.7306 53.806 40.0586 53.038 39.568C52.27 39.0773 51.3847 38.832 50.382 38.832C49.4007 38.832 48.526 39.0773 47.758 39.568C47.0113 40.0586 46.414 40.7306 45.966 41.584C45.5393 42.4373 45.326 43.408 45.326 44.496C45.326 45.6053 45.5393 46.5973 45.966 47.472C46.414 48.3253 47.0113 48.9973 47.758 49.488C48.526 49.9786 49.4007 50.224 50.382 50.224ZM65.384 52.944V31.856H68.68V52.944H65.384ZM61.896 39.344V36.144H72.584V39.344H61.896ZM77.6653 52.944V31.856H80.9613V52.944H77.6653ZM74.1773 39.344V36.144H84.8653V39.344H74.1773ZM95.5503 53.264C93.8223 53.264 92.2863 52.9013 90.9423 52.176C89.6196 51.4293 88.5743 50.416 87.8063 49.136C87.0596 47.856 86.6863 46.384 86.6863 44.72C86.6863 43.3973 86.8996 42.192 87.3263 41.104C87.7529 40.016 88.3396 39.0773 89.0863 38.288C89.8543 37.4773 90.7609 36.8586 91.8063 36.432C92.8729 35.984 94.0249 35.76 95.2623 35.76C96.3503 35.76 97.3636 35.9733 98.3023 36.4C99.2409 36.8053 100.052 37.3706 100.734 38.096C101.438 38.8213 101.972 39.6853 102.334 40.688C102.718 41.6693 102.9 42.7466 102.878 43.92L102.846 45.328H89.1183L88.3823 42.704H99.9983L99.5183 43.248V42.48C99.4543 41.776 99.2196 41.1466 98.8143 40.592C98.4089 40.0373 97.8969 39.6 97.2783 39.28C96.6596 38.96 95.9876 38.8 95.2623 38.8C94.1103 38.8 93.1396 39.024 92.3503 39.472C91.5609 39.8986 90.9636 40.5386 90.5583 41.392C90.1529 42.224 89.9503 43.2586 89.9503 44.496C89.9503 45.6693 90.1956 46.6933 90.6863 47.568C91.1769 48.4213 91.8703 49.0826 92.7663 49.552C93.6623 50.0213 94.6969 50.256 95.8703 50.256C96.7023 50.256 97.4703 50.1173 98.1743 49.84C98.8996 49.5626 99.6783 49.0613 100.51 48.336L102.174 50.672C101.662 51.184 101.033 51.632 100.286 52.016C99.5609 52.4 98.7823 52.7093 97.9503 52.944C97.1396 53.1573 96.3396 53.264 95.5503 53.264ZM106.46 52.944V36.144H109.788V41.424L109.468 40.144C109.703 39.3333 110.098 38.5973 110.652 37.936C111.228 37.2746 111.879 36.752 112.604 36.368C113.351 35.984 114.119 35.792 114.908 35.792C115.271 35.792 115.612 35.824 115.932 35.888C116.274 35.952 116.54 36.0266 116.732 36.112L115.868 39.696C115.612 39.5893 115.324 39.504 115.004 39.44C114.706 39.3546 114.407 39.312 114.108 39.312C113.532 39.312 112.978 39.4293 112.444 39.664C111.932 39.8773 111.474 40.1866 111.068 40.592C110.684 40.976 110.375 41.4346 110.14 41.968C109.906 42.48 109.788 43.0453 109.788 43.664V52.944H106.46Z" fill="black"/>
<g clip-path="url(#clip0_10_272)">
<path d="M127.07 23.7023C126.032 23.2244 125.129 22.4966 124.44 21.5841C123.752 20.6716 123.301 19.6028 123.127 18.4732L125.083 18.1693C125.207 18.9762 125.53 19.7397 126.021 20.3917C126.513 21.0438 127.158 21.564 127.899 21.9061C128.64 22.2482 129.455 22.4014 130.27 22.3522C131.085 22.303 131.875 22.0528 132.57 21.624L133.608 23.3092C132.635 23.9098 131.529 24.26 130.389 24.3286C129.248 24.3972 128.108 24.1821 127.07 23.7023ZM135.224 15.4779C134.868 15.314 134.472 15.259 134.086 15.3201C133.699 15.3812 133.339 15.5556 133.052 15.8212C132.764 16.0868 132.562 16.4316 132.471 16.8122C132.379 17.1927 132.403 17.5918 132.538 17.9591C132.673 18.3263 132.915 18.6452 133.231 18.8753C133.548 19.1055 133.925 19.2366 134.316 19.2521C134.707 19.2676 135.094 19.1667 135.428 18.9624C135.762 18.758 136.028 18.4592 136.192 18.1038C136.303 17.8683 136.367 17.6129 136.378 17.3525C136.39 17.0922 136.349 16.8321 136.259 16.5876C136.169 16.343 136.031 16.1189 135.853 15.9284C135.676 15.7379 135.462 15.5847 135.224 15.4779ZM128.037 12.1617C127.681 11.9977 127.285 11.9428 126.899 12.0039C126.512 12.065 126.152 12.2394 125.865 12.5049C125.577 12.7705 125.375 13.1154 125.283 13.4959C125.192 13.8764 125.215 14.2756 125.351 14.6428C125.486 15.01 125.727 15.3289 126.044 15.5591C126.36 15.7892 126.738 15.9203 127.129 15.9358C127.52 15.9513 127.907 15.8505 128.241 15.6461C128.575 15.4417 128.84 15.1429 129.004 14.7876C129.116 14.552 129.179 14.2966 129.191 14.0363C129.203 13.7759 129.162 13.5158 129.072 13.2713C128.982 13.0268 128.844 12.8027 128.666 12.6121C128.488 12.4216 128.274 12.2685 128.037 12.1617Z" fill="black"/>
<path d="M124.07 34.3044L122.925 32.6864L129.42 28.0556L134.811 30.5428C135.047 30.6521 135.302 30.7138 135.562 30.7243C135.821 30.7347 136.081 30.6939 136.325 30.604C136.569 30.5141 136.792 30.3769 136.983 30.2003C137.174 30.0238 137.328 29.8113 137.437 29.5751L143.24 16.9973C143.35 16.7614 143.411 16.5063 143.422 16.2465C143.432 15.9868 143.391 15.7275 143.301 15.4835C143.211 15.2396 143.074 15.0158 142.898 14.825C142.721 14.6341 142.509 14.48 142.272 14.3714L124.304 6.0808C124.068 5.97153 123.813 5.90988 123.553 5.89939C123.294 5.88891 123.034 5.92979 122.79 6.01969C122.547 6.10959 122.323 6.24675 122.132 6.4233C121.941 6.59986 121.787 6.81234 121.678 7.04856L115.875 19.6263C115.766 19.8622 115.704 20.1174 115.694 20.3771C115.683 20.6369 115.724 20.8962 115.814 21.1401C115.904 21.3841 116.041 21.6079 116.217 21.7987C116.394 21.9895 116.606 22.1436 116.843 22.2522L124.928 25.983L124.099 27.7798L116.014 24.049C115.061 23.6093 114.321 22.8089 113.958 21.824C113.595 20.8391 113.638 19.7503 114.078 18.7973L119.882 6.2195C120.099 5.74749 120.408 5.32298 120.789 4.97024C121.171 4.61749 121.619 4.34342 122.106 4.16368C122.594 3.98394 123.112 3.90205 123.632 3.92269C124.151 3.94333 124.661 4.0661 125.133 4.28398L143.102 12.5746C143.574 12.7923 143.998 13.1008 144.351 13.4825C144.704 13.8643 144.978 14.3118 145.157 14.7995C145.337 15.2872 145.419 15.8056 145.398 16.3249C145.378 16.8443 145.255 17.3545 145.037 17.8264L139.234 30.4041C138.794 31.3572 137.993 32.0966 137.009 32.4596C136.024 32.8226 134.935 32.7794 133.982 32.3397L129.638 30.3354L124.07 34.3044Z" fill="black"/>
</g>
<defs>
<clipPath id="clip0_10_272">
<rect width="31.6619" height="31.6619" fill="white" transform="translate(120.572) rotate(24.7689)"/>
</clipPath>
</defs>
</svg>
