<svg width="22" height="22" viewBox="0 0 22 22" fill="none" xmlns="http://www.w3.org/2000/svg">
<rect width="21.2574" height="21.2574" rx="7" fill="#F6EAFF"/>
<path d="M15.2954 9.96205H11.2954V5.96205C11.2954 5.78524 11.2252 5.61567 11.1001 5.49064C10.9751 5.36562 10.8056 5.29538 10.6287 5.29538C10.4519 5.29538 10.2824 5.36562 10.1573 5.49064C10.0323 5.61567 9.96208 5.78524 9.96208 5.96205V9.96205H5.96208C5.78527 9.96205 5.6157 10.0323 5.49067 10.1573C5.36565 10.2823 5.29541 10.4519 5.29541 10.6287C5.29541 10.8055 5.36565 10.9751 5.49067 11.1001C5.6157 11.2251 5.78527 11.2954 5.96208 11.2954H9.96208V15.2954C9.96208 15.4722 10.0323 15.6418 10.1573 15.7668C10.2824 15.8918 10.4519 15.962 10.6287 15.962C10.8056 15.962 10.9751 15.8918 11.1001 15.7668C11.2252 15.6418 11.2954 15.4722 11.2954 15.2954V11.2954H15.2954C15.4722 11.2954 15.6418 11.2251 15.7668 11.1001C15.8918 10.9751 15.9621 10.8055 15.9621 10.6287C15.9621 10.4519 15.8918 10.2823 15.7668 10.1573C15.6418 10.0323 15.4722 9.96205 15.2954 9.96205Z" fill="#C57FFF"/>
</svg>
