<svg width="21" height="20" viewBox="0 0 21 20" fill="none" xmlns="http://www.w3.org/2000/svg">
<path d="M20.1336 7.2359V16.2557C20.1336 17.0531 19.7986 17.8179 19.2025 18.3817C18.6063 18.9456 17.7977 19.2623 16.9546 19.2623H3.17898C2.33587 19.2623 1.52728 18.9456 0.931103 18.3817C0.334928 17.8179 0 17.0531 0 16.2557V7.2359C0 6.12346 0.635797 5.15132 1.58949 4.63018L10.0668 0L18.5441 4.63018C19.4978 5.15132 20.1336 6.12346 20.1336 7.2359ZM1.82262 5.70253L10.0668 10.7436L18.311 5.70253L10.0668 1.15253L1.82262 5.70253ZM10.0668 11.9563L1.19742 6.51432C1.11264 6.7348 1.05966 6.98535 1.05966 7.2359V16.2557C1.05966 16.7873 1.28295 17.2972 1.6804 17.673C2.07785 18.0489 2.6169 18.2601 3.17898 18.2601H16.9546C17.5167 18.2601 18.0557 18.0489 18.4532 17.673C18.8506 17.2972 19.0739 16.7873 19.0739 16.2557V7.2359C19.0739 6.98535 19.0209 6.7348 18.9362 6.51432L10.0668 11.9563Z" fill="black"/>
</svg>
