<svg width="43" height="43" viewBox="0 0 43 43" fill="none" xmlns="http://www.w3.org/2000/svg">
<g clip-path="url(#clip0_33_52)">
<path d="M19.7634 23.7023C18.7253 23.2244 17.8217 22.4966 17.1336 21.5841C16.4454 20.6716 15.9941 19.6028 15.8201 18.4732L17.7757 18.1693C17.9004 18.9762 18.2228 19.7397 18.7142 20.3917C19.2057 21.0438 19.8509 21.564 20.5922 21.9061C21.3336 22.2482 22.1481 22.4014 22.9631 22.3522C23.7781 22.303 24.5683 22.0528 25.2631 21.624L26.3009 23.3092C25.3286 23.9098 24.2225 24.26 23.0817 24.3286C21.9408 24.3972 20.8008 24.1821 19.7634 23.7023ZM27.9169 15.4779C27.5616 15.314 27.1655 15.259 26.7789 15.3201C26.3924 15.3812 26.0326 15.5556 25.7451 15.8212C25.4576 16.0868 25.2553 16.4316 25.1638 16.8122C25.0723 17.1927 25.0957 17.5918 25.2311 17.9591C25.3664 18.3263 25.6076 18.6452 25.9242 18.8753C26.2408 19.1055 26.6185 19.2366 27.0095 19.2521C27.4006 19.2676 27.7875 19.1667 28.1213 18.9624C28.455 18.758 28.7207 18.4592 28.8847 18.1038C28.9963 17.8683 29.0597 17.6129 29.0714 17.3525C29.083 17.0922 29.0426 16.8321 28.9525 16.5876C28.8624 16.343 28.7243 16.1189 28.5465 15.9284C28.3687 15.7379 28.1547 15.5847 27.9169 15.4779ZM20.7296 12.1617C20.3743 11.9977 19.9782 11.9428 19.5917 12.0039C19.2051 12.065 18.8453 12.2394 18.5578 12.5049C18.2703 12.7705 18.068 13.1154 17.9765 13.4959C17.885 13.8764 17.9085 14.2756 18.0438 14.6428C18.1791 15.01 18.4203 15.3289 18.7369 15.5591C19.0535 15.7892 19.4312 15.9203 19.8222 15.9358C20.2133 15.9513 20.6002 15.8505 20.934 15.6461C21.2678 15.4417 21.5334 15.1429 21.6974 14.7876C21.809 14.552 21.8725 14.2966 21.8841 14.0363C21.8957 13.7759 21.8553 13.5158 21.7652 13.2713C21.6751 13.0268 21.5371 12.8027 21.3592 12.6121C21.1814 12.4216 20.9674 12.2685 20.7296 12.1617Z" fill="white"/>
<path d="M16.7634 34.3044L15.6183 32.6864L22.1137 28.0556L27.5041 30.5428C27.74 30.6521 27.9952 30.7138 28.2549 30.7243C28.5147 30.7347 28.774 30.6939 29.0179 30.604C29.2619 30.5141 29.4857 30.3769 29.6765 30.2003C29.8673 30.0238 30.0215 29.8113 30.13 29.5751L35.9335 16.9973C36.0427 16.7614 36.1044 16.5063 36.1149 16.2465C36.1254 15.9868 36.0845 15.7275 35.9946 15.4835C35.9047 15.2396 35.7675 15.0158 35.591 14.825C35.4144 14.6341 35.2019 14.48 34.9657 14.3714L16.9975 6.0808C16.7616 5.97153 16.5064 5.90988 16.2467 5.89939C15.9869 5.88891 15.7276 5.92979 15.4837 6.01969C15.2398 6.10959 15.016 6.24675 14.8251 6.4233C14.6343 6.59986 14.4802 6.81234 14.3716 7.04856L8.56816 19.6263C8.45888 19.8622 8.39723 20.1174 8.38675 20.3771C8.37626 20.6369 8.41714 20.8962 8.50704 21.1401C8.59694 21.3841 8.7341 21.6079 8.91066 21.7987C9.08721 21.9895 9.29969 22.1436 9.53592 22.2522L17.6216 25.983L16.7926 27.7798L8.70685 24.049C7.75376 23.6093 7.0144 22.8089 6.65142 21.824C6.28844 20.8391 6.33157 19.7503 6.77134 18.7973L12.5748 6.2195C12.7924 5.74749 13.1009 5.32298 13.4827 4.97024C13.8644 4.61749 14.312 4.34342 14.7997 4.16368C15.2874 3.98394 15.8057 3.90205 16.3251 3.92269C16.8444 3.94333 17.3547 4.0661 17.8266 4.28398L35.7948 12.5746C36.2668 12.7923 36.6913 13.1008 37.044 13.4825C37.3968 13.8643 37.6709 14.3118 37.8506 14.7995C38.0303 15.2872 38.1122 15.8056 38.0916 16.3249C38.0709 16.8443 37.9482 17.3545 37.7303 17.8264L31.9268 30.4041C31.4871 31.3572 30.6867 32.0966 29.7018 32.4596C28.7169 32.8226 27.6282 32.7794 26.6751 32.3397L22.3313 30.3354L16.7634 34.3044Z" fill="white"/>
</g>
<defs>
<clipPath id="clip0_33_52">
<rect width="31.6619" height="31.6619" fill="white" transform="translate(13.2651) rotate(24.7689)"/>
</clipPath>
</defs>
</svg>
