<svg width="28" height="26" viewBox="0 0 28 26" fill="none" xmlns="http://www.w3.org/2000/svg">
<path d="M4.63239 18.8444C4.81194 19.0246 4.94952 19.2422 5.03533 19.4817C5.12114 19.7212 5.15307 19.9767 5.12884 20.23C5.00727 21.402 4.77679 22.5602 4.44038 23.6895C6.85345 23.1308 8.32724 22.4839 8.99667 22.1448C9.37636 21.9525 9.81363 21.907 10.2248 22.0168C11.4036 22.3311 12.6185 22.4893 13.8384 22.4873C20.7506 22.4873 25.9469 17.6318 25.9469 12.1086C25.9469 6.58706 20.7506 1.7298 13.8384 1.7298C6.9261 1.7298 1.7298 6.58706 1.7298 12.1086C1.7298 14.6479 2.79708 17.0039 4.63239 18.8444ZM3.7796 25.5992C3.36976 25.6805 2.95859 25.7549 2.54626 25.8224C2.2003 25.8777 1.93737 25.5179 2.07402 25.1962C2.22762 24.834 2.36839 24.4665 2.49609 24.0943L2.50128 24.077C2.93027 22.8316 3.27969 21.3993 3.4077 20.0656C1.28524 17.938 0 15.153 0 12.1086C0 5.42118 6.19613 0 13.8384 0C21.4806 0 27.6767 5.42118 27.6767 12.1086C27.6767 18.796 21.4806 24.2171 13.8384 24.2171C12.4678 24.219 11.1028 24.041 9.77853 23.6878C8.87904 24.1428 6.9434 24.9713 3.7796 25.5992Z" fill="#C57FFF"/>
</svg>
