<svg width="28" height="24" viewBox="0 0 28 24" fill="none" xmlns="http://www.w3.org/2000/svg">
<path d="M3.09234 5.4116C3.09234 4.70094 3.23232 3.99723 3.50428 3.34067C3.77623 2.6841 4.17485 2.08753 4.67736 1.58502C5.17988 1.08251 5.77645 0.683892 6.43301 0.411933C7.08958 0.139975 7.79328 0 8.50394 0C9.2146 0 9.91831 0.139975 10.5749 0.411933C11.2314 0.683892 11.828 1.08251 12.3305 1.58502C12.833 2.08753 13.2316 2.6841 13.5036 3.34067C13.7756 3.99723 13.9155 4.70094 13.9155 5.4116C13.9155 6.12226 13.7756 6.82596 13.5036 7.48253C13.2316 8.13909 12.833 8.73566 12.3305 9.23818C11.828 9.74069 11.2314 10.1393 10.5749 10.4113C9.91831 10.6832 9.2146 10.8232 8.50394 10.8232C7.79328 10.8232 7.08958 10.6832 6.43301 10.4113C5.77645 10.1393 5.17988 9.74069 4.67736 9.23818C4.17485 8.73566 3.77623 8.13909 3.50428 7.48253C3.23232 6.82596 3.09234 6.12226 3.09234 5.4116ZM0 21.6464C0 16.9499 3.80745 13.1425 8.50394 13.1425C13.2004 13.1425 17.0079 16.9499 17.0079 21.6464V21.9363C17.0079 23.0573 16.0995 23.9657 14.9785 23.9657H2.02935C0.908376 23.9657 0 23.0573 0 21.9363V21.6464ZM20.8733 2.31926C22.1035 2.31926 23.2833 2.80796 24.1532 3.67785C25.0231 4.54774 25.5118 5.72756 25.5118 6.95777C25.5118 8.18798 25.0231 9.3678 24.1532 10.2377C23.2833 11.1076 22.1035 11.5963 20.8733 11.5963C19.6431 11.5963 18.4633 11.1076 17.5934 10.2377C16.7235 9.3678 16.2348 8.18798 16.2348 6.95777C16.2348 5.72756 16.7235 4.54774 17.5934 3.67785C18.4633 2.80796 19.6431 2.31926 20.8733 2.31926ZM20.8733 13.9155C24.7146 13.9155 27.8311 17.032 27.8311 20.8733V21.9556C27.8311 23.0669 26.9324 23.9657 25.8211 23.9657H18.8246C19.1435 23.3617 19.3271 22.6707 19.3271 21.9363V21.6464C19.3271 19.158 18.4864 16.8678 17.0804 15.0413C18.1723 14.3311 19.4769 13.9155 20.8733 13.9155Z" fill="#B9B9B9"/>
</svg>
