<svg width="28" height="30" viewBox="0 0 28 30" fill="none" xmlns="http://www.w3.org/2000/svg">
<path d="M20.084 21.9099H19.8986C19.6799 20.8448 19.2947 19.8653 18.7432 18.9714C18.1916 18.0775 17.5212 17.3073 16.7319 16.6606C15.9427 16.014 15.0535 15.51 14.0645 15.1486C13.0755 14.7872 12.039 14.6066 10.9549 14.6066C10.1181 14.6066 9.30979 14.7159 8.53001 14.9346C7.75023 15.1534 7.02275 15.4577 6.34758 15.8476C5.67241 16.2374 5.05905 16.7129 4.5075 17.274C3.95595 17.835 3.48047 18.4532 3.08107 19.1283C2.68167 19.8035 2.37262 20.531 2.1539 21.3108C1.93518 22.0905 1.82582 22.8988 1.82582 23.7357H0C0 22.5945 0.166416 21.4962 0.499248 20.4406C0.83208 19.3851 1.31231 18.4104 1.93993 17.5165C2.56756 16.6226 3.3093 15.8285 4.16515 15.1343C5.02101 14.4402 5.99098 13.8934 7.07506 13.494C6.00049 12.7903 5.16365 11.9059 4.56455 10.8408C3.96546 9.77575 3.66115 8.59657 3.65164 7.30328C3.65164 6.29528 3.84183 5.34909 4.22221 4.4647C4.60259 3.58032 5.12086 2.8053 5.77701 2.13963C6.43317 1.47397 7.20819 0.950949 8.10208 0.570569C8.99597 0.19019 9.94692 0 10.9549 0C11.9629 0 12.9091 0.19019 13.7935 0.570569C14.6779 0.950949 15.4529 1.46922 16.1186 2.12537C16.7842 2.78152 17.3073 3.55655 17.6876 4.45044C18.068 5.34433 18.2582 6.29528 18.2582 7.30328C18.2582 7.93091 18.1821 8.54427 18.03 9.14337C17.8778 9.74247 17.6496 10.3083 17.3453 10.8408C17.041 11.3733 16.6844 11.8631 16.2755 12.31C15.8666 12.757 15.3863 13.1516 14.8348 13.494C15.8999 13.9029 16.8793 14.4639 17.7732 15.1771C18.6671 15.8903 19.4374 16.7272 20.084 17.6876V21.9099ZM5.47746 7.30328C5.47746 8.06404 5.62011 8.7725 5.90539 9.42865C6.19067 10.0848 6.58056 10.6649 7.07506 11.1689C7.56955 11.6729 8.14963 12.0675 8.81529 12.3528C9.48096 12.6381 10.1942 12.7807 10.9549 12.7807C11.7062 12.7807 12.4146 12.6381 13.0803 12.3528C13.746 12.0675 14.326 11.6776 14.8205 11.1832C15.315 10.6887 15.7097 10.1086 16.0045 9.44292C16.2993 8.77725 16.4419 8.06404 16.4324 7.30328C16.4324 6.55204 16.2897 5.84358 16.0045 5.17791C15.7192 4.51225 15.3293 3.93217 14.8348 3.43768C14.3403 2.94319 13.7555 2.54854 13.0803 2.25375C12.4051 1.95895 11.6967 1.81631 10.9549 1.82582C10.1942 1.82582 9.48571 1.96846 8.82956 2.25375C8.1734 2.53903 7.59332 2.92892 7.08932 3.42341C6.58532 3.91791 6.19067 4.50274 5.90539 5.17791C5.62011 5.85309 5.47746 6.56154 5.47746 7.30328ZM23.7357 23.7357H27.3873V25.5615H23.7357V29.2131H21.9099V25.5615H18.2582V23.7357H21.9099V20.084H23.7357V23.7357Z" fill="#B9B9B9"/>
</svg>
