<svg width="27" height="25" viewBox="0 0 27 25" fill="none" xmlns="http://www.w3.org/2000/svg">
<path d="M2.81244 18.2693V17.2276H24.1874V18.2693H2.81244ZM3.41431 12.0474L2.55706 11.587L3.64269 9.82342H1.47144V8.90259H3.64269L2.55706 7.19113L3.41431 6.73071L4.49994 8.44113L5.58556 6.73071L6.44281 7.19113L5.35719 8.90259H7.52843V9.82342H5.35719L6.44281 11.587L5.58556 12.0474L4.49994 10.2849L3.41431 12.0474ZM12.4143 12.0474L11.5571 11.587L12.6427 9.82342H10.4714V8.90259H12.6427L11.5571 7.19113L12.4143 6.73071L13.4999 8.44113L14.5856 6.73071L15.4428 7.19113L14.3572 8.90259H16.5284V9.82342H14.3572L15.4428 11.587L14.5856 12.0474L13.4999 10.2849L12.4143 12.0474ZM21.4143 12.0474L20.5571 11.587L21.6427 9.82342H19.4714V8.90259H21.6427L20.5571 7.19113L21.4143 6.73071L22.4999 8.44113L23.5856 6.73071L24.4428 7.19113L23.3572 8.90259H25.5284V9.82342H23.3572L24.4428 11.587L23.5856 12.0474L22.4999 10.2849L21.4143 12.0474Z" fill="black"/>
</svg>
