<svg width="28" height="28" viewBox="0 0 28 28" fill="none" xmlns="http://www.w3.org/2000/svg">
<path d="M25.7633 13.2945C24.802 11.2694 23.6582 9.61788 22.3316 8.33984L20.9404 9.73109C22.0749 10.8153 23.0631 12.2336 23.9176 14C21.6426 18.7086 18.4133 20.9453 14 20.9453C12.6753 20.9453 11.4551 20.7413 10.3395 20.3334L8.83201 21.8408C10.3815 22.5563 12.1041 22.9141 14 22.9141C19.2554 22.9141 23.1765 20.1769 25.7633 14.7027C25.8673 14.4826 25.9212 14.2421 25.9212 13.9986C25.9212 13.7551 25.8673 13.5147 25.7633 13.2945ZM24.025 4.52702L22.8594 3.35999C22.839 3.33966 22.8149 3.32352 22.7884 3.31251C22.7618 3.3015 22.7333 3.29584 22.7046 3.29584C22.6758 3.29584 22.6474 3.3015 22.6208 3.31251C22.5943 3.32352 22.5701 3.33966 22.5498 3.35999L19.5592 6.34921C17.9104 5.50703 16.0573 5.08593 14 5.08593C8.74451 5.08593 4.82341 7.82304 2.23669 13.2973C2.13272 13.5174 2.0788 13.7579 2.0788 14.0014C2.0788 14.2448 2.13272 14.4853 2.23669 14.7055C3.27011 16.882 4.51425 18.6266 5.96912 19.9393L3.0756 22.832C3.03461 22.873 3.01158 22.9287 3.01158 22.9867C3.01158 23.0446 3.03461 23.1003 3.0756 23.1413L4.2429 24.3086C4.28392 24.3496 4.33954 24.3726 4.39753 24.3726C4.45552 24.3726 4.51114 24.3496 4.55216 24.3086L24.025 4.83656C24.0454 4.81624 24.0615 4.79211 24.0725 4.76556C24.0835 4.739 24.0892 4.71054 24.0892 4.68179C24.0892 4.65304 24.0835 4.62458 24.0725 4.59802C24.0615 4.57147 24.0454 4.54734 24.025 4.52702ZM4.0824 14C6.36013 9.2914 9.58943 7.05468 14 7.05468C15.4913 7.05468 16.8473 7.31062 18.0775 7.83097L16.1552 9.75324C15.2449 9.26751 14.2025 9.08724 13.1819 9.23903C12.1613 9.39081 11.2164 9.8666 10.4868 10.5962C9.75721 11.3258 9.28141 12.2706 9.12963 13.2913C8.97785 14.3119 9.15812 15.3542 9.64384 16.2646L7.36283 18.5456C6.10037 17.4314 5.01208 15.9217 4.0824 14ZM10.8281 14C10.8286 13.5178 10.9428 13.0426 11.1614 12.6128C11.3801 12.1831 11.6971 11.811 12.0865 11.5268C12.476 11.2425 12.9271 11.0542 13.403 10.977C13.879 10.8999 14.3664 10.9361 14.8258 11.0827L10.9733 14.9352C10.8767 14.6328 10.8278 14.3174 10.8281 14Z" fill="black"/>
<path d="M13.8906 17.0625C13.796 17.0625 13.7028 17.0581 13.6104 17.0497L12.1661 18.494C13.0348 18.8266 13.9812 18.9006 14.891 18.7068C15.8008 18.5131 16.635 18.0599 17.2928 17.4022C17.9505 16.7444 18.4037 15.9102 18.5974 15.0004C18.7912 14.0906 18.7173 13.1441 18.3846 12.2755L16.9403 13.7197C16.9488 13.8122 16.9531 13.9054 16.9531 14C16.9534 14.4023 16.8743 14.8006 16.7205 15.1722C16.5666 15.5439 16.3411 15.8816 16.0566 16.166C15.7722 16.4504 15.4345 16.676 15.0629 16.8298C14.6912 16.9837 14.2929 17.0627 13.8906 17.0625Z" fill="black"/>
</svg>
