<svg width="24" height="26" viewBox="0 0 24 26" fill="none" xmlns="http://www.w3.org/2000/svg">
<g clip-path="url(#clip0_10_584)">
<path d="M12.0813 8.16073C9.59615 8.16073 7.58128 10.3435 7.58128 13.0357C7.58128 15.7275 9.59615 17.9107 12.0813 17.9107C14.5664 17.9107 16.5813 15.7279 16.5813 13.0357C16.5813 10.3435 14.5664 8.16073 12.0813 8.16073ZM12.0813 16.2857C10.4272 16.2857 9.04676 14.7924 9.04676 13.0004C9.04676 11.2084 10.3926 9.75036 12.0468 9.75036C13.7013 9.75036 15.0468 11.2084 15.0468 13.0004C15.0468 14.7923 13.7358 16.2857 12.0813 16.2857ZM23.9924 12.8115C23.9838 12.7704 23.9876 12.7271 23.9763 12.6868C23.9714 12.6698 23.9617 12.66 23.956 12.645C23.9482 12.6218 23.95 12.5946 23.9392 12.5723C21.7578 7.16143 17.0564 4.04712 12.0464 4.04712C7.03643 4.04712 2.24093 7.15574 0.0584277 12.567C0.0490527 12.5898 0.0505527 12.6133 0.0430293 12.6393C0.0378027 12.6552 0.0269277 12.6641 0.0220527 12.6791C0.0104277 12.7201 0.0149277 12.7628 0.00780273 12.8042C-0.00604883 12.8774 -0.0187988 12.9485 -0.0187988 13.0224C-0.0187988 13.0971 -0.00604883 13.1662 0.00780273 13.2405C0.0153027 13.2812 0.0104512 13.3254 0.0220762 13.3644C0.0269512 13.3827 0.0378262 13.3904 0.0430527 13.4071C0.0509277 13.4294 0.0490527 13.4571 0.0584277 13.4794C2.2413 18.889 6.98993 21.9526 11.9999 21.9526C17.0103 21.9526 21.7578 18.8955 23.9399 13.4847C23.9508 13.4615 23.9486 13.4371 23.9568 13.4115C23.9621 13.3973 23.9722 13.3868 23.9767 13.3709C23.9883 13.3311 23.9846 13.2876 23.9928 13.2462C24.0059 13.1735 24.0183 13.1024 24.0183 13.0272C24.0183 12.9557 24.0059 12.885 23.9924 12.8115ZM11.9999 20.3276C7.75078 20.3276 3.56843 17.9011 1.51343 13.0232C3.54893 8.16159 7.78718 5.6725 12.0468 5.6725C16.3049 5.6725 20.4491 8.16444 22.4853 13.0285C20.4506 17.8884 16.2595 20.3276 11.9999 20.3276Z" fill="black"/>
</g>
<defs>
<clipPath id="clip0_10_584">
<rect width="24" height="26" fill="white"/>
</clipPath>
</defs>
</svg>
