<svg width="22" height="22" viewBox="0 0 22 22" fill="none" xmlns="http://www.w3.org/2000/svg">
<path d="M12.4016 15.945C12.4016 16.4149 12.215 16.8655 11.8827 17.1978C11.5504 17.53 11.0998 17.7167 10.6299 17.7167C10.1601 17.7167 9.70944 17.53 9.37719 17.1978C9.04493 16.8655 8.85828 16.4149 8.85828 15.945C8.85828 15.4751 9.04493 15.0245 9.37719 14.6922C9.70944 14.36 10.1601 14.1733 10.6299 14.1733C11.0998 14.1733 11.5504 14.36 11.8827 14.6922C12.215 15.0245 12.4016 15.4751 12.4016 15.945ZM12.4016 10.63C12.4016 11.0999 12.215 11.5505 11.8827 11.8828C11.5504 12.215 11.0998 12.4017 10.6299 12.4017C10.1601 12.4017 9.70944 12.215 9.37719 11.8828C9.04493 11.5505 8.85828 11.0999 8.85828 10.63C8.85828 10.1601 9.04493 9.7095 9.37719 9.37724C9.70944 9.04499 10.1601 8.85834 10.6299 8.85834C11.0998 8.85834 11.5504 9.04499 11.8827 9.37724C12.215 9.7095 12.4016 10.1601 12.4016 10.63ZM10.6299 7.08667C11.0998 7.08667 11.5504 6.90001 11.8827 6.56776C12.215 6.23551 12.4016 5.78488 12.4016 5.315C12.4016 4.84513 12.215 4.3945 11.8827 4.06224C11.5504 3.72999 11.0998 3.54333 10.6299 3.54333C10.1601 3.54333 9.70944 3.72999 9.37719 4.06224C9.04493 4.3945 8.85828 4.84513 8.85828 5.315C8.85828 5.78488 9.04493 6.23551 9.37719 6.56776C9.70944 6.90001 10.1601 7.08667 10.6299 7.08667Z" fill="#B9B9B9"/>
</svg>
