<svg width="19" height="23" viewBox="0 0 19 23" fill="none" xmlns="http://www.w3.org/2000/svg">
<path fill-rule="evenodd" clip-rule="evenodd" d="M9.125 5.57699e-06C7.66792 -0.00201242 6.25923 0.54368 5.15847 1.53654C4.05771 2.5294 3.33904 3.90253 3.13489 5.40295C2.93073 6.90336 3.25483 8.42996 4.04748 9.70147C4.84014 10.973 6.04793 11.9038 7.44833 12.3223C5.45833 12.5736 3.75167 13.3051 2.465 14.6241C0.828333 16.3003 0 18.798 0 22.0567C0 22.275 0.0834073 22.4844 0.231874 22.6389C0.38034 22.7933 0.581703 22.88 0.791666 22.88C1.00163 22.88 1.20299 22.7933 1.35146 22.6389C1.49993 22.4844 1.58333 22.275 1.58333 22.0567C1.58333 19.0753 2.33833 17.0647 3.57667 15.7959C4.81667 14.5253 6.67 13.8667 9.125 13.8667C11.58 13.8667 13.4333 14.5253 14.675 15.7959C15.9117 17.0664 16.6667 19.0753 16.6667 22.0567C16.6667 22.275 16.7501 22.4844 16.8985 22.6389C17.047 22.7933 17.2484 22.88 17.4583 22.88C17.6683 22.88 17.8697 22.7933 18.0181 22.6389C18.1666 22.4844 18.25 22.275 18.25 22.0567C18.25 18.798 17.4217 16.302 15.7833 14.6241C14.5 13.3068 12.7917 12.5736 10.8017 12.3223C12.1974 11.899 13.3997 10.9669 14.1882 9.69657C14.9768 8.42628 15.2987 6.90299 15.095 5.40591C14.8913 3.90883 14.1756 2.53824 13.0791 1.54537C11.9826 0.552503 10.5788 0.00385968 9.125 5.57699e-06ZM4.66667 6.28334C4.66667 5.05362 5.13638 3.87426 5.97248 3.00472C6.80858 2.13518 7.94258 1.64667 9.125 1.64667C10.3074 1.64667 11.4414 2.13518 12.2775 3.00472C13.1136 3.87426 13.5833 5.05362 13.5833 6.28334C13.5833 7.51306 13.1136 8.69241 12.2775 9.56196C11.4414 10.4315 10.3074 10.92 9.125 10.92C7.94258 10.92 6.80858 10.4315 5.97248 9.56196C5.13638 8.69241 4.66667 7.51306 4.66667 6.28334Z" fill="black"/>
</svg>
